<?xml version="1.0" encoding="utf-8"?>
<!-- Generator: Adobe Illustrator 21.1.0, SVG Export Plug-In . SVG Version: 6.00 Build 0)  -->
<svg version="1.1" id="Layer_1" xmlns="http://www.w3.org/2000/svg" xmlns:xlink="http://www.w3.org/1999/xlink" x="0px" y="0px"
	 viewBox="0 0 24 24" style="enable-background:new 0 0 24 24;" xml:space="preserve">
<style type="text/css">
	.st0{fill:#2764AD;}
</style>
<g>
	<g>
		<path class="st0" d="M11.4,14.9c-2.1,0-3.8,1.7-3.8,3.8s1.7,3.8,3.8,3.8s3.8-1.7,3.8-3.8S13.5,14.9,11.4,14.9z"/>
	</g>
	<g>
		<path class="st0" d="M16.1,14.1c1.1,1.2,1.8,2.8,1.8,4.5c0,2.2-1.1,4.2-2.8,5.4c3.2-1,5.8-3.3,7-6.2c1.6-3.9,0.1-6.9-2.4-9.6
			c0.1,0.3,0.1,0.7,0.1,1.1C19.8,11.6,18.3,13.5,16.1,14.1z"/>
	</g>
	<g>
		<path class="st0" d="M11.8,9.3c0,1.6,1.3,2.9,2.9,2.9s2.9-1.3,2.9-2.9c0-1.6-1.3-2.9-2.9-2.9S11.8,7.7,11.8,9.3z"/>
	</g>
	<g>
		<path class="st0" d="M6.3,22.9c-1-1.1-1.6-2.6-1.6-4.2c0-3.3,2.5-6.1,5.8-6.5c-0.6-0.8-0.9-1.8-0.9-2.8c0-2.8,2.3-5,5.1-5
			c0.2,0,0.5,0,0.7,0C13.8,3,12.1,1.5,10.8,0c0.7,6.9-6.3,4.4-8.9,10.7C0.2,14.9,1.7,20.1,6.3,22.9z"/>
	</g>
</g>
</svg>
