<?xml version="1.0" encoding="utf-8"?>
<!-- Generator: Adobe Illustrator 21.1.0, SVG Export Plug-In . SVG Version: 6.00 Build 0)  -->
<svg version="1.1" id="Layer_1" xmlns="http://www.w3.org/2000/svg" xmlns:xlink="http://www.w3.org/1999/xlink" x="0px" y="0px"
	 viewBox="0 0 24 24" style="enable-background:new 0 0 24 24;" xml:space="preserve">
<style type="text/css">
	.st0{fill:#2764AD;}
</style>
<path class="st0" d="M12,8.3H7.5v4.5H12V8.3z M13.5,15.8v1.5H6v-1.5H13.5z M13.5,6.8v7.5H6V6.8H13.5z M21,15.8v1.5h-6v-1.5H21z
	 M21,12.8v1.5h-6v-1.5H21z M21,9.8v1.5h-6V9.8H21z M21,6.8v1.5h-6V6.8H21z M3,18V6.8H1.5V18c0,0.2,0.1,0.4,0.2,0.5s0.3,0.2,0.5,0.2
	s0.4-0.1,0.5-0.2S3,18.2,3,18z M22.5,18V5.3h-18V18c0,0.3,0,0.5-0.1,0.8h17.4c0.2,0,0.4-0.1,0.5-0.2S22.5,18.2,22.5,18z M24,3.8V18
	c0,0.6-0.2,1.2-0.7,1.6s-1,0.7-1.6,0.7H2.3c-0.6,0-1.2-0.2-1.6-0.7S0,18.6,0,18V5.3h3V3.8H24z"/>
</svg>
