<?xml version="1.0" encoding="utf-8"?>
<!-- Generator: Adobe Illustrator 21.1.0, SVG Export Plug-In . SVG Version: 6.00 Build 0)  -->
<svg version="1.1" id="Layer_1" xmlns="http://www.w3.org/2000/svg" xmlns:xlink="http://www.w3.org/1999/xlink" x="0px" y="0px"
	 viewBox="0 0 24 24" style="enable-background:new 0 0 24 24;" xml:space="preserve">
<style type="text/css">
	.st0{fill:#2764AD;}
</style>
<path class="st0" d="M21.9,11.2c0.6,0,1.1,0.2,1.5,0.6c0.4,0.4,0.6,0.9,0.6,1.5c0,0.9-0.4,1.6-1.3,1.9L20.2,16l0.8,2.4
	c0.1,0.2,0.1,0.4,0.1,0.7c0,0.6-0.2,1.1-0.6,1.5c-0.4,0.4-0.9,0.6-1.5,0.6c-0.5,0-0.9-0.1-1.2-0.4c-0.4-0.3-0.6-0.6-0.8-1l-0.8-2.4
	l-4.5,1.5l0.8,2.4c0.1,0.2,0.1,0.5,0.1,0.7c0,0.6-0.2,1.1-0.6,1.5c-0.4,0.4-0.9,0.6-1.5,0.6c-0.5,0-0.9-0.1-1.2-0.4
	c-0.4-0.3-0.6-0.6-0.8-1l-0.8-2.4L5.6,21c-0.3,0.1-0.5,0.1-0.7,0.1c-0.6,0-1.1-0.2-1.5-0.6s-0.6-0.9-0.6-1.5c0-0.5,0.1-0.9,0.4-1.2
	c0.3-0.4,0.6-0.6,1-0.8l2.3-0.8L5,11.8l-2.3,0.8c-0.3,0.1-0.5,0.1-0.7,0.1c-0.6,0-1.1-0.2-1.5-0.6C0.2,11.7,0,11.3,0,10.7
	c0-0.5,0.1-0.9,0.4-1.2c0.3-0.4,0.6-0.6,1-0.8l2.3-0.8L2.9,5.6C2.9,5.4,2.8,5.2,2.8,4.9c0-0.6,0.2-1.1,0.6-1.5s0.9-0.6,1.5-0.6
	c0.5,0,0.9,0.1,1.2,0.4s0.6,0.6,0.8,1l0.8,2.3l4.5-1.5l-0.8-2.3c-0.1-0.2-0.1-0.5-0.1-0.7c0-0.6,0.2-1.1,0.6-1.5
	C12.3,0.2,12.7,0,13.3,0c0.5,0,0.9,0.1,1.2,0.4s0.6,0.6,0.8,1l0.8,2.3L18.4,3c0.2-0.1,0.4-0.1,0.6-0.1c0.6,0,1.1,0.2,1.5,0.6
	c0.4,0.4,0.6,0.9,0.6,1.4c0,0.4-0.1,0.8-0.4,1.2s-0.6,0.6-1.1,0.7l-2.3,0.8l1.5,4.6l2.4-0.8C21.5,11.2,21.7,11.2,21.9,11.2z
	 M10.5,15l4.5-1.5l-1.5-4.5l-4.5,1.5L10.5,15z"/>
</svg>
