<?xml version="1.0" encoding="utf-8"?>
<!-- Generator: Adobe Illustrator 21.1.0, SVG Export Plug-In . SVG Version: 6.00 Build 0)  -->
<svg version="1.1" id="Layer_1" xmlns="http://www.w3.org/2000/svg" xmlns:xlink="http://www.w3.org/1999/xlink" x="0px" y="0px"
	 viewBox="0 0 18 18" style="enable-background:new 0 0 18 18;" xml:space="preserve">
<path fill="#CCCCCC" d="M4.2,4.9c0-0.3-0.1-0.6-0.4-0.9C3.7,3.8,3.4,3.6,3,3.6S2.4,3.8,2.2,4C1.9,4.2,1.8,4.5,1.8,4.9s0.1,0.6,0.4,0.9
	C2.4,5.9,2.7,6.1,3,6.1s0.6-0.1,0.9-0.4C4.1,5.5,4.2,5.2,4.2,4.9z M14.4,10.3c0,0.3-0.1,0.6-0.4,0.9l-4.7,4.7
	c-0.2,0.2-0.5,0.4-0.9,0.4c-0.3,0-0.6-0.1-0.9-0.4L0.9,9c-0.2-0.2-0.4-0.6-0.6-1S0,7.3,0,7V3c0-0.3,0.1-0.6,0.4-0.9s0.5-0.4,0.9-0.4
	h3.9c0.3,0,0.7,0.1,1.1,0.3s0.7,0.4,1,0.6L14,9.5C14.2,9.7,14.4,10,14.4,10.3z M18,10.3c0,0.3-0.1,0.6-0.4,0.9L13,15.8
	c-0.2,0.2-0.5,0.4-0.9,0.4c-0.2,0-0.4,0-0.6-0.1c-0.1-0.1-0.3-0.2-0.5-0.4l4.5-4.5c0.2-0.2,0.4-0.5,0.4-0.9c0-0.3-0.1-0.6-0.4-0.9
	L8.7,2.7c-0.2-0.2-0.6-0.4-1-0.6C7.4,1.9,7,1.8,6.7,1.8h2.1c0.3,0,0.7,0.1,1.1,0.3s0.7,0.4,1,0.6l6.8,6.8C17.9,9.7,18,10,18,10.3z"
	/>
</svg>
