<?xml version="1.0" encoding="utf-8"?>
<!-- Generator: Adobe Illustrator 16.0.0, SVG Export Plug-In . SVG Version: 6.00 Build 0)  -->
<!DOCTYPE svg PUBLIC "-//W3C//DTD SVG 1.1//EN" "http://www.w3.org/Graphics/SVG/1.1/DTD/svg11.dtd">
<svg version="1.1" id="Layer_1" xmlns="http://www.w3.org/2000/svg" xmlns:xlink="http://www.w3.org/1999/xlink" x="0px" y="0px"
	 width="253px" height="75.951px" viewBox="0 0 253 75.951" enable-background="new 0 0 253 75.951" xml:space="preserve">
<path fill-rule="evenodd" clip-rule="evenodd" fill="#df0024" d="M0,42.524c5.808-20.908,59.993-10.371,50.005-23.938
	C42.609,11.313,34.009,3.794,29.444,0c0.546,7.234-1.16,10.996-4.671,13.882c-2.462,2.023-4.085,2.533-6.852,3.725
	C5.783,22.836,0.875,31.774,0,42.524"/>
<path fill-rule="evenodd" clip-rule="evenodd" fill="#2764ae" d="M7.562,65.318c-9.464-13.43,61.683-6.814,57.013-27.547
	c-0.561-1.692-1.284-3.321-2.154-4.872c-1.595-2.843-5.113-6.894-9.359-11.247C62.396,36.074-3.15,22.567,0.53,52.257
	C1.65,57.16,4.115,61.622,7.562,65.318"/>
<path fill-rule="evenodd" clip-rule="evenodd" fill="#ebebeb" d="M65.622,42.108C65.381,64.271-5.996,54.474,13.7,70.427
	c5.411,3.478,12.038,5.523,19.197,5.523c18.25,0,33.043-13.297,33.043-29.701C65.94,44.844,65.832,43.462,65.622,42.108"/>
<path fill="#BEBEBE" d="M251.313,62.679c0-0.199-0.038-0.387-0.111-0.564c-0.073-0.177-0.177-0.331-0.311-0.46
	s-0.29-0.234-0.467-0.312c-0.177-0.078-0.37-0.117-0.577-0.117c-0.191,0-0.373,0.037-0.545,0.11
	c-0.173,0.073-0.324,0.171-0.455,0.292c-0.129,0.121-0.233,0.268-0.311,0.441c-0.078,0.173-0.118,0.355-0.118,0.545v1.168h2.895
	V62.679z M249.859,59.539c0.416,0,0.813,0.076,1.194,0.227c0.38,0.151,0.714,0.363,0.999,0.636c0.285,0.273,0.515,0.595,0.688,0.967
	c0.172,0.372,0.259,0.774,0.259,1.207v4.373c0,0.225-0.081,0.42-0.24,0.584c-0.16,0.165-0.356,0.251-0.59,0.26
	c-0.234,0-0.434-0.076-0.604-0.228c-0.169-0.151-0.252-0.343-0.252-0.577v-1.518h-2.895v1.479c0,0.225-0.086,0.422-0.259,0.591
	c-0.173,0.168-0.372,0.253-0.598,0.253c-0.225,0-0.423-0.078-0.597-0.233c-0.173-0.156-0.259-0.346-0.259-0.571v-4.308
	c0.009-0.433,0.093-0.839,0.252-1.22c0.161-0.381,0.381-0.713,0.663-0.999c0.281-0.286,0.612-0.51,0.993-0.675
	C248.995,59.622,249.41,59.539,249.859,59.539z M240.362,59.552c0.251,0,0.463,0.087,0.636,0.26c0.173,0.172,0.26,0.376,0.26,0.609
	v4.464c-0.009,0.416-0.089,0.798-0.241,1.148c-0.151,0.35-0.359,0.658-0.622,0.921c-0.265,0.264-0.576,0.474-0.935,0.629
	c-0.359,0.156-0.746,0.238-1.161,0.247c-0.234,0-0.435-0.083-0.604-0.247c-0.168-0.164-0.253-0.372-0.253-0.623
	c0-0.242,0.084-0.45,0.253-0.623c0.169-0.173,0.37-0.259,0.604-0.259c0.164,0,0.322-0.03,0.474-0.091
	c0.151-0.061,0.281-0.145,0.389-0.253c0.108-0.108,0.195-0.236,0.259-0.383c0.065-0.147,0.098-0.303,0.098-0.467v-4.464
	c0-0.233,0.082-0.437,0.247-0.609C239.93,59.639,240.128,59.552,240.362,59.552z M231.346,59.552c0.233,0,0.435,0.087,0.604,0.26
	c0.168,0.172,0.253,0.376,0.253,0.609v6.54c0,0.242-0.085,0.448-0.253,0.617c-0.169,0.168-0.371,0.253-0.604,0.253
	c-0.251,0-0.461-0.084-0.63-0.253c-0.168-0.169-0.253-0.375-0.253-0.617v-6.54c0-0.233,0.084-0.437,0.253-0.609
	C230.885,59.639,231.095,59.552,231.346,59.552z M222.484,62.771c0.216,0,0.402-0.079,0.558-0.234
	c0.156-0.156,0.234-0.346,0.234-0.571c0-0.216-0.078-0.4-0.234-0.552s-0.341-0.227-0.558-0.227h-2.129v1.583H222.484z
	 M222.484,66.105c0.216,0,0.402-0.075,0.558-0.227c0.156-0.151,0.234-0.383,0.234-0.694c0-0.311-0.078-0.543-0.234-0.694
	c-0.156-0.151-0.341-0.228-0.558-0.228h-2.129v1.843H222.484z M219.591,59.526h2.894c0.346,0,0.67,0.065,0.973,0.194
	c0.302,0.129,0.566,0.294,0.792,0.493c0.225,0.199,0.402,0.448,0.532,0.746c0.129,0.299,0.194,0.621,0.194,0.967
	c0,0.329-0.054,0.631-0.162,0.908c-0.109,0.277-0.258,0.528-0.448,0.753c0.19,0.216,0.339,0.465,0.448,0.746
	c0.107,0.281,0.162,0.578,0.162,0.889c0,0.346-0.065,0.688-0.194,1.025c-0.13,0.337-0.308,0.618-0.532,0.843
	c-0.226,0.225-0.489,0.405-0.792,0.539c-0.303,0.134-0.627,0.201-0.973,0.201h-2.894h-0.065c-0.268-0.018-0.48-0.1-0.636-0.247
	c-0.165-0.173-0.247-0.38-0.247-0.623v-6.579c0-0.129,0.035-0.25,0.104-0.363c0.043-0.087,0.099-0.165,0.168-0.234
	c0.147-0.155,0.325-0.242,0.532-0.259C219.474,59.526,219.521,59.526,219.591,59.526z M211.443,62.667
	c0-0.19-0.037-0.372-0.11-0.545c-0.074-0.173-0.175-0.325-0.305-0.454c-0.13-0.13-0.281-0.231-0.454-0.305s-0.354-0.11-0.545-0.11
	h-1.401v2.829h1.401c0.191,0,0.372-0.037,0.545-0.11c0.173-0.074,0.324-0.175,0.454-0.305c0.13-0.13,0.231-0.279,0.305-0.448
	C211.406,63.049,211.443,62.865,211.443,62.667z M209.678,65.819h-1.052v1.142c0,0.242-0.084,0.448-0.253,0.617
	c-0.168,0.168-0.374,0.253-0.616,0.253c-0.242,0-0.448-0.084-0.617-0.253c-0.168-0.169-0.253-0.375-0.253-0.617v-6.579
	c0-0.242,0.084-0.447,0.253-0.616c0.169-0.168,0.375-0.253,0.617-0.253h2.27c0.433,0,0.841,0.082,1.227,0.247
	c0.384,0.165,0.72,0.389,1.005,0.675c0.285,0.285,0.51,0.621,0.674,1.006c0.165,0.385,0.247,0.793,0.247,1.226
	c0,0.571-0.137,1.092-0.409,1.563c-0.272,0.471-0.633,0.846-1.083,1.123l0.986,0.96c0.164,0.173,0.246,0.381,0.246,0.623
	s-0.086,0.45-0.259,0.623c-0.155,0.173-0.354,0.259-0.597,0.259c-0.242,0-0.45-0.086-0.623-0.259L209.678,65.819z M198.052,61.291
	c-0.207,0-0.383,0.076-0.525,0.227s-0.218,0.339-0.227,0.564c0.009,0.199,0.084,0.37,0.227,0.513
	c0.143,0.143,0.318,0.214,0.525,0.214h0.883c0.32,0,0.629,0.065,0.928,0.195c0.298,0.129,0.564,0.309,0.798,0.539
	c0.234,0.229,0.419,0.498,0.558,0.804c0.138,0.307,0.208,0.634,0.208,0.98c0,0.337-0.065,0.657-0.196,0.96
	c-0.129,0.303-0.307,0.567-0.531,0.792c-0.225,0.225-0.489,0.405-0.792,0.539s-0.627,0.205-0.973,0.214h-2.31
	c-0.259,0-0.472-0.084-0.636-0.253c-0.164-0.169-0.246-0.378-0.246-0.63c0-0.233,0.083-0.437,0.253-0.61
	c0.168-0.173,0.378-0.259,0.629-0.259h2.31c0.199,0,0.376-0.074,0.532-0.221s0.233-0.324,0.233-0.532
	c0-0.216-0.075-0.396-0.226-0.539c-0.152-0.143-0.327-0.219-0.526-0.227h-0.896c-0.329-0.008-0.644-0.078-0.947-0.208
	c-0.303-0.13-0.568-0.305-0.797-0.526c-0.229-0.221-0.414-0.482-0.552-0.785c-0.138-0.302-0.207-0.631-0.207-0.986
	c0-0.32,0.065-0.631,0.195-0.934c0.129-0.302,0.309-0.571,0.538-0.804c0.229-0.233,0.496-0.422,0.798-0.564
	c0.303-0.143,0.627-0.214,0.973-0.214h2.31c0.234,0,0.433,0.084,0.597,0.253c0.164,0.168,0.255,0.378,0.271,0.629
	c0,0.251-0.081,0.459-0.246,0.623c-0.164,0.165-0.371,0.247-0.623,0.247H198.052z"/>
<path fill="#2764ae" d="M214.708,44.353c-0.852-7.697,5.781-15.191,13.537-15.199c7.213-0.516,14.133,5.52,14.576,12.741
	c0.147,4.832-0.016,9.68,0.082,14.52c-2.391,0.016-4.774,0.016-7.157,0c0-1.671,0-3.341-0.025-5.012
	c-1.664,2.761-4.037,5.593-7.518,5.773C221.243,57.513,215.044,51.174,214.708,44.353 M226.157,36.646
	c-2.735,1.032-4.709,3.907-4.447,6.855c-0.156,4.447,4.807,8.049,9.008,6.633c4.029-1.016,6.526-6.027,4.569-9.786
	C233.822,36.95,229.58,35.222,226.157,36.646z M183.713,41.872c0.598-7.329,7.623-13.414,15.002-12.7
	c8.369,0.212,15.076,9.113,12.914,17.221c-1.278,5.871-6.755,10.916-12.906,10.81c-3.538-0.074-6.175-2.842-7.683-5.798
	l-0.139,16.428h-7.271C183.696,60.207,183.517,49.496,183.713,41.872z M195.062,36.704c-4.962,1.785-5.864,9.229-1.58,12.234
	c4.227,3.62,11.571,0.189,11.449-5.388C205.381,38.53,199.6,34.575,195.062,36.704z M155.568,29.678
	c2.423-0.147,4.847-0.188,7.279-0.131c0.09,5.135-0.138,10.278,0.099,15.404c0.14,3.169,3.186,5.855,6.379,5.111
	c2.882-0.222,4.488-3.195,4.578-5.823c0.123-4.84,0.042-9.688,0.017-14.527c2.432-0.262,4.881-0.222,7.313-0.008
	c-0.582,6.886,1.368,14.305-1.818,20.759c-2.669,5.593-9.851,8.132-15.542,5.88c-4.972-1.737-7.977-6.945-8.238-12.03
	C155.502,39.439,155.658,34.56,155.568,29.678z M131.787,29.695h6.485c0.263,1.703,0.517,3.415,0.729,5.126
	c1.957-2.391,4.201-4.921,7.379-5.545c2.187-0.465,4.34,0.263,6.362,1.041c-0.017,2.71-0.017,5.429,0.05,8.141
	c-2.867-1.622-6.478-3.055-9.64-1.36c-2.005,1.113-4.175,3.039-4.086,5.536c-0.016,4.594,0.009,9.187,0.009,13.773
	c-2.433,0.024-4.865,0.024-7.305,0.009C131.812,47.514,131.795,38.604,131.787,29.695z M101.332,21.473
	c6.387,0.229,13.045-0.778,19.194,1.4c4.005,1.384,6.658,5.216,7.444,9.27c1.114,5.618,1.13,11.769-1.327,17.042
	c-1.769,3.808-5.773,5.97-9.769,6.632c-5.151,0.795-10.375,0.5-15.567,0.525C101.373,44.721,101.332,33.093,101.332,21.473z
	 M108.432,27.476c0.017,7.616,0.008,15.223,0,22.839c3.112,0.008,6.429,0.409,9.335-0.958c3.357-2.031,3.505-6.453,3.611-9.941
	c-0.065-3.44,0.041-7.478-2.522-10.114C115.933,26.959,111.92,27.582,108.432,27.476z M245.761,21.473
	c2.408-0.008,4.815-0.008,7.231-0.008c0,11.653-0.008,23.306,0.008,34.959c-2.416,0.007-4.832,0.007-7.247,0
	C245.778,44.771,245.769,33.118,245.761,21.473z"/>
</svg>
