<?xml version="1.0" encoding="utf-8"?>
<!-- Generator: Adobe Illustrator 16.0.0, SVG Export Plug-In . SVG Version: 6.00 Build 0)  -->
<!DOCTYPE svg PUBLIC "-//W3C//DTD SVG 1.1//EN" "http://www.w3.org/Graphics/SVG/1.1/DTD/svg11.dtd">
<svg version="1.1" id="Layer_1" xmlns="http://www.w3.org/2000/svg" xmlns:xlink="http://www.w3.org/1999/xlink" x="0px" y="0px"
	 width="317px" height="121px" viewBox="0 0 317 121" enable-background="new 0 0 317 121" xml:space="preserve">
<path fill-rule="evenodd" clip-rule="evenodd" fill="#CCCCCC" d="M95.863,67.545c-0.47,35.849-111.698,21.506-61.875,46.095
	c1.233,0.49,2.497,0.933,3.791,1.324c24.173,7.322,49.521-5.73,56.615-29.153C96.242,79.711,96.668,73.51,95.863,67.545"/>
<path fill-rule="evenodd" clip-rule="evenodd" fill="#09347B" d="M23.647,107.934C-9.859,78.806,105.81,93.121,93.641,58.499
	c-0.069-0.192-0.14-0.383-0.212-0.575c-0.556-1.474-1.189-2.919-1.898-4.329l0.003,0l-0.026-0.044
	c-2.027-4.024-4.664-7.759-7.831-11.062c-2.058-2.362-4.184-4.495-6.306-6.468c18.617,24.403-97.856,3.212-64.058,61.456
	C16.135,101.438,19.613,104.983,23.647,107.934"/>
<path fill-rule="evenodd" clip-rule="evenodd" fill="#FF0000" d="M6.843,84.288c-9.272-56.017,89.013-28.844,61.682-55.932
	c-0.891-0.751-1.761-1.491-2.603-2.224c-0.974-0.848-1.91-1.688-2.798-2.53c-5.373-5.092-8.999-10.255-8.617-17.691
	C35.88,17.132,13.303,38.011,6.856,59.296c-0.2,0.662-0.382,1.326-0.549,1.989L6.3,61.304h0.002
	C4.343,69.092,4.652,76.986,6.843,84.288"/>
<path fill="#B2B2B2" d="M199.553,82.553l2.384,7.329h-4.742L199.553,82.553z M198.767,79.079c-0.862,0-1.42,0.38-1.674,1.141
	l-5.757,16.104h3.779l1.141-3.525h6.67l1.141,3.525h3.728l-6.188-17.244H198.767z M185.464,80.879v10.829
	c0,1.318-0.634,1.978-1.928,1.978c-1.395,0-2.079-0.608-2.079-1.826V89.78h-3.373v1.344c0,1.294,0.076,2.131,0.254,2.536
	c0.608,2.055,2.765,2.917,5.249,2.917c2.562,0,4.615-0.862,5.199-3.069c0.127-0.659,0.202-1.471,0.202-2.384V79.079h-1.749
	C186.275,79.079,185.464,79.941,185.464,80.879z M171.146,96.323h3.525V79.079h-1.75c-1.191,0-1.775,0.634-1.775,1.851V96.323z
	 M164.133,90.973c0,1.724-1.064,2.231-2.814,2.231h-4.108v-4.515h4.057C163.094,88.689,164.133,89.197,164.133,90.973z
	 M163.702,83.897c0,1.445-1.141,1.876-2.536,1.876h-3.956v-3.702h3.905C162.713,82.071,163.702,82.451,163.702,83.897z
	 M167.861,91.074c0-2.283-0.989-3.398-2.688-4.058c1.344-0.66,2.08-1.75,2.08-3.576c0-3.068-2.156-4.361-5.401-4.361h-6.34
	c-0.989,0-1.775,0.862-1.775,1.851v15.394h7.836C165.3,96.323,167.861,94.649,167.861,91.074z M146.52,84.328
	c0,1.674-0.938,2.282-2.612,2.282h-4.159v-4.539h4.362C145.683,82.071,146.52,82.756,146.52,84.328z M150.095,83.998
	c0-3.55-1.978-4.919-5.554-4.919h-6.542c-0.989,0-1.775,0.862-1.775,1.851v15.394h3.525v-6.695h3.753c2.08,0,2.46,0.659,2.586,2.739
	c0.025,1.674,0.077,2.662,0.152,2.916c0.025,0.355,0.102,0.71,0.279,1.04h3.88c-0.33-0.229-0.533-0.608-0.558-1.142l-0.152-3.372
	c-0.076-1.116-0.228-1.979-0.532-2.562c-0.355-0.533-0.913-0.938-1.648-1.192C149.157,87.6,150.095,86.18,150.095,83.998z
	 M125.99,93.66c-2.257,0-3.424-0.913-3.551-2.738h-3.423c0.102,3.753,2.409,5.655,6.974,5.655c4.361,0,6.644-1.675,6.847-5.047
	c0.102-2.181-0.812-3.602-2.739-4.261c-1.445-0.507-2.815-0.888-4.108-1.191c-2.257-0.507-3.348-1.294-3.348-2.384
	c0.076-1.319,0.989-2.004,2.815-2.028c1.496,0,2.536,0.481,3.119,1.47c0.33,0.66,0.837,1.015,1.572,1.015h1.978
	c-0.203-3.575-2.308-5.351-6.365-5.351c-4.26-0.025-6.416,1.75-6.492,5.376c0,2.282,1.674,3.854,5.047,4.717
	c1.243,0.33,2.409,0.634,3.423,0.938c1.065,0.305,1.572,0.862,1.572,1.699C129.337,92.95,128.247,93.66,125.99,93.66z"/>
<path fill="#09347B" d="M312.342,41.37h-1.874v-5.23l-1.887,5.276l-2.106-5.276v5.23h-1.775v-7.809h2.187l1.638,3.916l1.632-3.916
	h2.187V41.37z M303.563,35.072h-2.277v6.298h-1.881v-6.298h-2.276v-1.511h6.435V35.072z M248.161,59.379
	c-0.961-8.682,6.521-17.133,15.267-17.142c8.137-0.582,15.941,6.225,16.44,14.371c0.166,5.449-0.019,10.917,0.092,16.376
	c-2.696,0.018-5.384,0.018-8.071,0c0-1.885,0-3.769-0.028-5.653c-1.875,3.113-4.553,6.309-8.479,6.512
	C255.531,74.221,248.54,67.071,248.161,59.379z M261.073,50.687c-3.085,1.165-5.31,4.406-5.015,7.731
	c-0.176,5.015,5.42,9.078,10.159,7.48c4.544-1.145,7.361-6.797,5.153-11.036C269.718,51.03,264.934,49.081,261.073,50.687z
	 M213.204,56.581c0.674-8.267,8.598-15.129,16.921-14.325c9.438,0.24,17.002,10.278,14.563,19.422
	c-1.441,6.622-7.619,12.313-14.555,12.192c-3.99-0.083-6.965-3.205-8.665-6.54l-0.156,15.055h-8.2
	C213.186,73.787,212.982,65.179,213.204,56.581z M226.004,50.752c-5.597,2.013-6.613,10.408-1.782,13.799
	c4.767,4.082,13.051,0.212,12.912-6.077C237.643,52.812,231.122,48.351,226.004,50.752z M181.46,42.828
	c2.734-0.166,5.468-0.212,8.211-0.148c0.102,5.791-0.157,11.592,0.111,17.373c0.156,3.574,3.592,6.604,7.194,5.764
	c3.25-0.25,5.062-3.603,5.162-6.567c0.14-5.458,0.048-10.926,0.02-16.384c2.742-0.295,5.505-0.25,8.247-0.009
	c-0.656,7.767,1.542,16.134-2.05,23.413c-3.011,6.309-11.111,9.172-17.53,6.632c-5.606-1.959-8.996-7.833-9.291-13.568
	C181.387,53.837,181.563,48.333,181.46,42.828z M154.639,42.847h7.315c0.296,1.921,0.582,3.852,0.822,5.781
	c2.207-2.697,4.738-5.551,8.322-6.253c2.465-0.525,4.894,0.296,7.176,1.174c-0.019,3.057-0.019,6.123,0.056,9.181
	c-3.233-1.83-7.306-3.446-10.871-1.534c-2.263,1.255-4.71,3.426-4.609,6.244c-0.018,5.182,0.01,10.362,0.01,15.534
	c-2.743,0.027-5.486,0.027-8.238,0.01C154.667,62.943,154.648,52.895,154.639,42.847z M120.292,33.574
	c7.203,0.258,14.712-0.878,21.648,1.579c4.517,1.562,7.509,5.883,8.396,10.455c1.256,6.336,1.273,13.273-1.497,19.22
	c-1.995,4.296-6.512,6.733-11.018,7.481c-5.81,0.896-11.702,0.563-17.558,0.592C120.338,59.794,120.292,46.679,120.292,33.574z
	 M128.299,40.344c0.019,8.589,0.01,17.169,0,25.759c3.51,0.009,7.25,0.461,10.529-1.081c3.787-2.29,3.954-7.278,4.073-11.212
	c-0.073-3.879,0.046-8.433-2.844-11.406C136.759,39.762,132.233,40.464,128.299,40.344z M283.184,33.574
	c2.716-0.009,5.432-0.009,8.155-0.009c0,13.143-0.01,26.285,0.01,39.428c-2.725,0.008-5.449,0.008-8.174,0
	C283.202,59.85,283.193,46.708,283.184,33.574z"/>
</svg>
